# xmcd
#
# Track frame offsets: 
#        150
#        13035
#        33513
#        58524
#        77026
#        86620
#        102793
#        123042
#        136744
#        156465
#        177758
#
# Disc length: 2686 seconds
#
# Revision: 0
# Processed by: cddbd v1.5.2PL0 Copyright (c) Steve Scherf et al.
# Submitted via: ExactAudioCopy v0.95b3
#
DISCID=7f0a7c0b
DTITLE=Hellkommander - Death To My Enemies
DYEAR=2010
DGENRE=Thrash Metal
TTITLE0=Gift Of Death
TTITLE1=Dog From Hell
TTITLE2=The Cursed
TTITLE3=Armageddon, I Want It Now
TTITLE4=Nuclear Graves
TTITLE5=Morbid Obsession
TTITLE6=Black Rites
TTITLE7=Execute The Weak
TTITLE8=Dog From Hell (Rehearsal 06.06.06)
TTITLE9=Armageddon, I Want It Now (Rehearsal 06.06.06)
TTITLE10=The Cursed (Rehearsal 06.06.06)
EXTD=
EXTT0=
EXTT1=
EXTT2=
EXTT3=
EXTT4=
EXTT5=
EXTT6=
EXTT7=
EXTT8=
EXTT9=
EXTT10=
PLAYORDER=
